# xmcd
#
# Track frame offsets: 
#        182
#        13830
#        25325
#        42232
#        57162
#        69017
#        84875
#        95845
#        111017
#        123755
#        136902
#        153945
#        169375
#
# Disc length: 2518 seconds
#
# Revision: 5
# Processed by: cddbd v1.5.2PL0 Copyright (c) Steve Scherf et al.
# Submitted via: ExactAudioCopy v1.0b3
#
DISCID=9e09d40d
DTITLE=Yoakam, Dwight - A Long Way Home
DYEAR=1998
DGENRE=Country
TTITLE0=Same Fool
TTITLE1=The Curse
TTITLE2=Things Change
TTITLE3=Yet To Succeed
TTITLE4=I Wouldn't Put It Past Me
TTITLE5=These Arms
TTITLE6=That's Okay
TTITLE7=Only Want You More
TTITLE8=I'll Just Take These
TTITLE9=A Long Way Home
TTITLE10=Listen
TTITLE11=Traveler's Lantern
TTITLE12=Maybe You Like It, Maybe You Don't
EXTD=YEAR: 1998
EXTT0=
EXTT1=
EXTT2=
EXTT3=
EXTT4=
EXTT5=
EXTT6=
EXTT7=
EXTT8=
EXTT9=
EXTT10=
EXTT11=
EXTT12=
PLAYORDER=
